<svg xmlns="http://www.w3.org/2000/svg" viewBox="87.26 524.96 482.25 70.98">
  <defs>
    <style>
      .a{stroke:rgba(0,0,0,0);}
    </style>
  </defs>
  <path class="a" d="M87.76 594h6.05v-18.82l9.8-8.16L123.2 594h7.6l-22.57-31.2 21.14-18.34h-8.07l-27.45 24v-43H87.8zm79.68-19.2c.1 9.7-8.06 15.55-17.28 15.55-5.66 0-11.04-3.74-11.04-9.8 0-9.7 12.77-9.6 23.04-11.4 1.63-.3 4.32-.78 5.1-2.22h.18zm-26.2-15.17c.18-8.06 5.75-11.52 13.24-11.52 7.1 0 12.96 2.1 12.96 10.2 0 5.5-2.78 6.2-7.78 6.7-13.05 1.6-26.6 2.1-26.6 16 0 10 7.5 14.5 16.62 14.5 9.5 0 13.82-3.6 18.05-10.1h.2c0 5.2.95 8.7 7.1 8.7a16.6 16.6 0 0 0 3.93-.36v-5.1a5.68 5.68 0 0 1-1.92.4c-2.4 0-3.55-1.35-3.55-3.66V559c0-13.25-9.5-15.94-18.3-15.94-11.4 0-19.5 5-20.1 16.6zM185.48 594h6.04v-28.9c.2-9.7 5.95-17 15.55-17 9.78 0 12.56 6.44 12.56 14.98V594h6.05v-31.87c0-11.8-4.2-19.1-18.13-19.1-7 0-13.63 4.03-15.84 9.98h-.2v-8.5h-6zm83.32-19.2c.1 9.7-8.07 15.55-17.28 15.55-5.67 0-11.04-3.74-11.04-9.8 0-9.7 12.76-9.6 23.04-11.4 1.63-.3 4.32-.78 5.08-2.22h.2zm-26.2-15.17c.18-8.06 5.75-11.52 13.24-11.52 7.1 0 12.96 2.1 12.96 10.2 0 5.5-2.8 6.2-7.78 6.7-13.06 1.6-26.6 2.1-26.6 16 0 10 7.5 14.5 16.62 14.5 9.5 0 13.82-3.6 18.04-10.1h.2c0 5.2.96 8.7 7.1 8.7a16.6 16.6 0 0 0 3.93-.36v-5.1a5.68 5.68 0 0 1-1.9.4c-2.4 0-3.5-1.35-3.5-3.66V559c0-13.25-9.5-15.94-18.2-15.94-11.3 0-19.5 5-20.03 16.6zm86.3 28.8h-37.35c1.63-9.02 13.63-14.97 20.16-19.4 8.8-5.65 16.9-12.66 16.9-23.9 0-12.47-9.1-18.9-20.8-18.9-14.6 0-21.8 9.98-21.5 23.8h6.1c-.2-9.88 4.16-18.7 15.2-18.7 8.17 0 15.08 4.98 15.08 13.7 0 5.4-1.9 8.94-5.55 12.7-11.42 11.4-31.86 16.3-32.34 36.27H329zm32.34-57.12c15.36 0 17.38 17.9 17.38 29.5 0 11.7-2.02 29.6-17.38 29.6s-17.37-17.8-17.37-29.5c0-11.6 2-29.47 17.36-29.47zm0-5c-19.58 0-23.42 18.9-23.42 34.7 0 15.65 3.84 34.56 23.42 34.56s23.42-18.9 23.42-34.66c0-15.67-3.83-34.6-23.42-34.6zm36 17.9H415V594h6.05v-67.2h-4.9c-1.83 12.38-8.35 12.58-18.9 12.96zm53.38 0h17.76V594h6.05v-67.2h-4.9c-1.83 12.38-8.35 12.58-18.9 12.96zm59.42-14.5H504v14.88h-8.63v5.1H504v33.9c-.08 8.44 2.7 11.13 10.77 11.13 1.82 0 3.55-.2 5.37-.2v-5.2a46.9 46.9 0 0 1-5.18.3c-4.32-.3-4.9-2.6-4.9-6.54v-33.4h10.08v-5.1h-10.08zm18.74 64.4h6.05v-28.9c.2-9.7 5.95-17 15.55-17 9.8 0 12.58 6.45 12.58 15V594H569v-31.87c0-11.8-4.22-19.1-18.14-19.1-7 0-13.63 4.03-15.84 9.98h-.2v-27.5h-6.04z"/>
</svg>
